<svg xmlns="http://www.w3.org/2000/svg" width="512" height="512" viewBox="0 0 512 512" version="1.1">
	<path d="M 231 29.426 C 212.832 32.629, 192.590 39.451, 181.135 46.233 C 172.709 51.222, 162.485 61.698, 159.341 68.566 C 152.344 83.849, 159.977 99.166, 176.771 103.543 C 186.123 105.981, 187.924 107.959, 189.108 117.097 C 190.425 127.254, 189.750 130.063, 185.092 133.806 C 179.274 138.482, 176.605 144.737, 177.410 151.811 C 178.954 165.368, 179.236 175.164, 178.117 176.283 C 177.492 176.908, 172.206 177.683, 166.370 178.007 L 155.758 178.596 152.439 182.218 C 147.941 187.127, 146.633 192.418, 146.564 206 C 146.499 218.586, 147.509 222.894, 152.099 229.615 C 155.921 235.209, 160.271 237.117, 168.424 236.774 C 174.083 236.536, 175.244 236.801, 177.222 238.778 C 179.253 240.808, 179.554 242.292, 180 252.451 C 180.457 262.871, 180.714 264.075, 183 266.515 C 187.202 271, 188.932 271.440, 204.500 271.980 L 219.500 272.500 219.500 281 L 219.500 289.500 205 290 C 186.358 290.643, 182.541 292.444, 181.387 301.141 C 181.032 303.813, 180.568 306, 180.356 306 C 180.144 306, 177.480 304.595, 174.437 302.878 C 169.501 300.092, 168.046 299.759, 160.938 299.790 C 154.265 299.819, 151.959 300.300, 146.736 302.749 C 134.840 308.327, 126.226 320.321, 125.233 332.687 C 124.585 340.759, 126.250 346.597, 131.223 353.696 C 134.682 358.634, 134.964 359.441, 133.518 360.250 C 129.848 362.304, 122.978 373.340, 120.391 381.339 C 116.916 392.084, 116.366 409.856, 119.368 414.437 C 121.037 416.986, 121.069 417.382, 119.667 418.166 C 116.376 420.008, 115 422.270, 115 425.837 C 115 429.356, 114.768 429.613, 110.098 431.272 C 103.293 433.689, 99 438.729, 99 444.303 C 99 449.845, 102.862 455.588, 108.194 457.975 C 115.242 461.131, 119.339 458.051, 114.630 453.136 C 111.765 450.146, 111.336 448.064, 113.200 446.200 C 115.083 444.317, 119.389 444.788, 123.102 447.284 C 126.356 449.471, 126.521 449.884, 127 457.025 C 127.472 464.072, 127.661 464.560, 130.417 465.876 C 133.997 467.586, 137.526 466.542, 140.143 463 C 141.811 460.742, 141.874 459.882, 140.794 454.121 L 139.599 447.742 142.463 445.278 C 145.850 442.365, 150.432 442.720, 153.250 446.114 C 155.553 448.888, 155.459 451.147, 152.903 454.396 C 148.472 460.029, 155.874 461.675, 163.781 456.815 C 167.498 454.531, 171.002 448.448, 170.996 444.290 C 170.990 439.663, 167.505 435.226, 161.601 432.330 C 156.394 429.777, 156.200 429.540, 156.717 426.356 C 157.169 423.572, 156.756 422.575, 154.141 420.132 C 151.309 417.486, 151.176 417.099, 152.673 415.861 C 156.138 412.995, 158.985 404.817, 158.891 398 C 158.841 394.425, 158.478 390.375, 158.085 389 C 157.356 386.456, 161.415 376.119, 164.215 373.389 C 165.921 371.725, 178.660 366.993, 179.411 367.745 C 179.735 368.068, 180 383.123, 180 401.199 C 180 436.706, 180.321 439.199, 185.317 442.472 C 186.683 443.367, 190.658 444.415, 194.150 444.800 L 200.500 445.500 200.793 452.711 C 201.285 464.820, 197.378 464, 254.588 464 C 289.384 464, 303.625 463.672, 305.477 462.829 C 308.380 461.506, 308.878 460.009, 309.243 451.500 L 309.500 445.500 316.423 444.816 C 324.242 444.043, 327.572 442.148, 330.278 436.929 C 331.875 433.850, 332.048 430.387, 331.969 403 C 331.921 386.225, 331.908 371.938, 331.941 371.250 C 332.020 369.576, 335.074 369.675, 341.562 371.561 C 346.695 373.053, 347.088 373.416, 350.493 379.811 C 353.868 386.148, 354.021 386.851, 353.406 393.171 C 352.894 398.434, 353.195 401.283, 354.833 406.671 C 355.975 410.427, 357.560 414.388, 358.355 415.474 C 359.656 417.250, 359.552 417.743, 357.321 420.395 C 355.386 422.694, 354.973 424.042, 355.439 426.528 C 356.007 429.556, 355.816 429.799, 351.565 431.422 C 349.106 432.361, 345.722 434.691, 344.047 436.600 C 341.519 439.478, 341 440.923, 341 445.074 C 341 449.483, 341.450 450.560, 344.787 454.138 C 347.852 457.424, 349.433 458.294, 353.077 458.705 C 359.492 459.428, 361.035 457.365, 356.982 453.482 C 353.699 450.337, 353.212 447.899, 355.489 446.009 C 357.747 444.135, 363.854 445.700, 367.150 448.997 C 369.645 451.491, 370 452.588, 370 457.801 C 370 462.029, 370.462 464.139, 371.593 465.078 C 373.952 467.035, 379.568 466.701, 382.048 464.456 C 384.032 462.661, 384.144 461.891, 383.518 454.369 C 382.872 446.625, 382.952 446.147, 385.142 444.613 C 388.561 442.218, 391.799 442.646, 395.077 445.923 C 398.631 449.477, 398.664 450.058, 395.524 453.790 C 393.063 456.713, 393.060 456.744, 395.026 458.524 C 397.906 461.129, 403.723 459.156, 408.390 453.990 C 411.525 450.520, 412 449.335, 412 444.982 C 412 440.718, 411.515 439.444, 408.750 436.444 C 406.962 434.504, 403.700 432.304, 401.500 431.555 C 397.843 430.309, 397.449 429.827, 396.911 425.930 C 396.493 422.908, 395.517 421.026, 393.554 419.461 C 390.829 417.289, 390.814 417.214, 392.541 414.578 C 394.055 412.268, 394.205 410.431, 393.642 401.163 C 392.559 383.319, 388.494 371.650, 380.319 362.910 L 375.823 358.103 378.872 354.302 C 382.975 349.185, 385.001 343.004, 384.994 335.624 C 384.987 327.291, 383.641 323.064, 378.701 315.854 C 373.404 308.124, 365.631 302.568, 357.113 300.422 C 349.328 298.462, 344.078 299.094, 336.536 302.898 C 333.500 304.430, 330.787 305.454, 330.508 305.175 C 330.229 304.895, 330 303.362, 330 301.768 C 330 297.895, 328.657 295.605, 324.752 292.820 C 321.778 290.699, 320.173 290.457, 306 290 L 290.500 289.500 290.211 280.750 L 289.922 272 302.325 272 C 318.533 272, 324.633 270.825, 328.500 266.960 L 331.500 263.961 331.618 251.371 C 331.707 241.847, 332.073 238.568, 333.118 237.906 C 333.878 237.424, 338.628 237.024, 343.673 237.015 C 352.105 237.001, 353.099 236.788, 355.967 234.374 C 362.623 228.774, 365.611 217.947, 364.637 202.961 C 363.880 191.304, 361.873 184.170, 358.442 180.941 C 356.080 178.718, 354.812 178.455, 344.243 178 C 330.212 177.396, 330.923 178.529, 332.221 158.829 C 333.071 145.924, 333.003 144.926, 331.012 141.024 C 329.851 138.748, 326.904 135.481, 324.452 133.753 C 319.531 130.284, 319.551 130.372, 321.082 119.364 C 322.381 110.026, 323.974 106.628, 327.703 105.241 C 339.831 100.729, 342.520 99.322, 346.370 95.472 C 355.096 86.746, 355.084 76.006, 346.334 63.226 C 337.040 49.651, 312.778 36.688, 285 30.454 C 274.943 28.198, 241.573 27.562, 231 29.426 M 232.374 41.411 C 221.631 43.456, 205.470 48.679, 196.500 53.003 C 179.960 60.977, 170.320 72.096, 171.252 82.122 C 171.642 86.318, 175.075 93, 176.841 93 C 177.228 93, 178.424 91.368, 179.498 89.374 C 183.347 82.226, 199.623 72.722, 214.387 69 C 225.304 66.248, 243.529 64.625, 255.779 65.313 C 263.420 65.743, 267.109 65.520, 270.154 64.446 C 281.466 60.455, 299.334 65.125, 316.657 76.600 C 324.130 81.550, 331 89.092, 331 92.346 C 331 94.167, 336.231 88.564, 337.658 85.213 C 339.409 81.102, 338.273 76.258, 334.075 69.941 C 326.713 58.863, 310.387 49.551, 288.297 43.832 C 277.643 41.073, 274.707 40.742, 258 40.415 C 245.195 40.165, 237.307 40.471, 232.374 41.411 M 237.235 77.427 C 226.360 79.504, 216.270 82.780, 209 86.593 C 202.650 89.924, 194.930 95.642, 198.091 94.673 C 201.184 93.724, 202.401 95.776, 203.144 103.186 C 203.547 107.209, 203.904 113.361, 203.938 116.857 C 203.985 121.638, 204.322 123.091, 205.298 122.716 C 208.962 121.310, 222.398 118, 229 116.878 C 233.125 116.176, 244.150 115.610, 253.500 115.620 C 271.623 115.639, 282.427 117.127, 296.923 121.599 C 301.047 122.872, 304.579 123.754, 304.773 123.560 C 304.967 123.366, 305.479 117.378, 305.911 110.253 C 306.344 103.128, 307.045 96.736, 307.470 96.048 C 307.949 95.273, 309.336 95.017, 311.121 95.374 C 312.705 95.691, 314 95.810, 314 95.638 C 314 94.236, 298.866 85.437, 292.410 83.085 C 276.210 77.183, 251.679 74.667, 237.235 77.427 M 238.702 153.017 C 221.276 154.582, 198.721 159.938, 195.260 163.334 C 193.404 165.156, 193.104 255.215, 194.946 257.435 C 196.098 258.823, 202.967 259, 255.599 259 L 314.954 259 316.348 256.750 C 317.484 254.916, 317.750 246.216, 317.784 209.746 L 317.827 164.992 315.663 163.466 C 312.574 161.288, 302.378 158.291, 288.500 155.481 C 274.661 152.679, 253.906 151.653, 238.702 153.017 M 217.667 162.434 C 211.009 164.223, 207.571 166.984, 207.187 170.849 C 206.833 174.406, 207.731 174.708, 212.041 172.479 C 213.659 171.642, 217.574 170.371, 220.741 169.654 C 225.446 168.590, 226.560 167.943, 226.827 166.121 C 227.181 163.705, 225.442 160.959, 223.628 161.067 C 223.007 161.105, 220.325 161.719, 217.667 162.434 M 284.352 163.586 C 282.155 166.939, 283.608 168.291, 291.124 169.890 C 294.217 170.548, 298.379 171.919, 300.374 172.936 L 304 174.784 304 171.465 C 304 166.505, 299.314 163.375, 289.256 161.619 C 286.553 161.147, 285.735 161.475, 284.352 163.586 M 214.558 179.447 C 208.881 181.534, 205.891 184.065, 203.289 188.986 C 199.174 196.767, 201.009 207.007, 207.624 213.186 C 211.309 216.628, 215.006 218, 220.597 218 C 235.141 218, 244.867 204.191, 239.452 191.232 C 235.405 181.546, 223.796 176.050, 214.558 179.447 M 283.007 180.593 C 275.524 183.838, 271 190.773, 271 199 C 271 210.420, 278.833 218, 290.635 218 C 302.564 218, 311 210.239, 311 199.264 C 311 184.612, 296.320 174.820, 283.007 180.593 M 172.389 183.980 C 169.346 185.209, 168.941 187.122, 169.998 195.258 C 170.515 199.241, 170.952 207.912, 170.969 214.527 C 170.993 223.757, 171.362 227.072, 172.557 228.777 C 174.365 231.360, 177.515 231.706, 178.393 229.418 C 178.727 228.548, 179 218.021, 179 206.025 C 179 187.059, 178.794 184.135, 177.418 183.607 C 175.490 182.867, 175.065 182.899, 172.389 183.980 M 333.750 183.689 C 332.148 184.108, 332 186.074, 332 206.957 C 332 228.591, 332.099 229.793, 333.916 230.268 C 334.969 230.543, 336.882 230.246, 338.166 229.607 C 340.467 228.463, 340.510 228.145, 341.163 207.473 C 341.803 187.231, 341.756 186.439, 339.802 184.750 C 337.766 182.989, 336.966 182.849, 333.750 183.689 M 221 190.719 C 217.536 191.970, 216 194.360, 216 198.500 C 216 203.562, 218.560 206.345, 223.098 206.216 C 227.502 206.091, 230 203.463, 230 198.956 C 230 193.361, 225.384 189.137, 221 190.719 M 287.455 193.050 C 282.652 198.357, 287.562 207.911, 294.413 206.589 C 300.846 205.349, 303.142 198.051, 298.545 193.455 C 295.421 190.330, 290.092 190.135, 287.455 193.050 M 159 197.500 C 159 199.198, 157.434 199.511, 156.500 198 C 154.364 194.543, 153.070 201.010, 155 205.500 C 155.771 207.294, 155.867 207.313, 155.930 205.684 C 155.968 204.686, 156.506 202.923, 157.125 201.766 C 158.248 199.667, 158.252 199.668, 159.590 202.082 C 160.880 204.411, 160.930 204.344, 160.965 200.250 C 160.984 197.912, 160.550 196, 160 196 C 159.450 196, 159 196.675, 159 197.500 M 350.537 197.939 C 349.737 199.234, 351.072 207.073, 351.996 206.503 C 353.087 205.828, 354.040 200.269, 353.366 198.511 C 352.710 196.803, 351.403 196.539, 350.537 197.939 M 355.513 198.217 C 355.127 199.161, 355.229 201.186, 355.740 202.717 L 356.669 205.500 357.161 202.931 C 357.432 201.518, 357.330 199.493, 356.934 198.431 C 356.278 196.669, 356.153 196.650, 355.513 198.217 M 211.888 227.069 C 209.182 228.741, 214.797 240.218, 220.418 244.505 C 225.714 248.545, 234.052 250.953, 246.092 251.921 C 274.613 254.214, 293.001 248.251, 297.421 235.276 C 299.894 228.019, 299.624 226.995, 295.250 227.032 C 291.887 227.060, 291.217 227.530, 288.756 231.584 C 286.641 235.068, 284.691 236.724, 280.256 238.803 C 274.691 241.410, 273.919 241.500, 257 241.500 C 245.410 241.500, 237.690 241.035, 234.142 240.124 C 228.421 238.656, 222.824 234.494, 220.485 229.970 C 219.046 227.187, 214.292 225.583, 211.888 227.069 M 195.571 304.571 C 194.177 305.966, 194 313.067, 194 367.637 C 194 408.114, 194.354 429.793, 195.035 431.066 C 196.041 432.945, 197.766 433, 255.413 433 C 304.723 433, 314.949 432.766, 315.903 431.616 C 316.740 430.608, 317.057 413.324, 317.070 367.885 C 317.087 309.852, 316.968 305.450, 315.353 304.269 C 313.998 303.278, 300.851 303, 255.380 303 C 203.771 303, 196.964 303.179, 195.571 304.571 M 150.310 314.380 C 133.622 322.330, 133.373 346.741, 149.887 355.875 C 158.522 360.651, 171.118 358.402, 177.374 350.967 C 179.852 348.022, 180 347.242, 180 337.095 C 180 326.843, 179.862 326.137, 177.040 321.921 C 170.664 312.398, 160.494 309.529, 150.310 314.380 M 343.707 313.533 C 338.263 315.531, 334.423 318.528, 333.213 321.724 C 332.635 323.251, 331.919 330.726, 331.621 338.335 C 331.084 352.077, 331.097 352.185, 333.548 354.457 C 338.955 359.468, 350.707 360.231, 358.810 356.097 C 366.896 351.972, 373 342.394, 373 333.830 C 373 329.083, 368.601 320.695, 364.451 317.530 C 357.250 312.038, 351.040 310.842, 343.707 313.533 M 224.763 319.565 C 215.434 324.627, 218.053 341.048, 228.641 343.879 C 231.443 344.629, 231.404 344.674, 226.558 346.325 C 220.325 348.449, 217.262 351.315, 215.928 356.269 C 214.710 360.789, 215.432 365.209, 218.108 369.618 C 219.255 371.508, 220 374.591, 220 377.445 C 220 381.344, 219.484 382.670, 217 385.154 C 213.507 388.647, 213.044 393.184, 215.627 398.626 C 219.001 405.737, 226.474 408.874, 235.550 406.990 C 240.334 405.996, 247.664 405.900, 281.500 406.385 C 291.210 406.525, 294.880 404.498, 297.541 397.531 C 299.586 392.177, 298.997 389.205, 294.986 384.636 C 291.117 380.230, 290.987 374.991, 294.580 368.303 C 296.661 364.431, 297.048 362.646, 296.578 359.091 C 295.536 351.217, 288.584 345, 280.821 345 C 276.286 345, 274.015 346.784, 269.472 353.915 C 265.244 360.551, 262.648 362.009, 255.101 361.985 C 248.829 361.965, 245.946 360.269, 243 354.865 C 239.647 348.714, 238.194 347.102, 234.568 345.510 C 231.973 344.371, 231.835 344.151, 233.673 344.082 C 236.391 343.980, 241.600 339.674, 243.536 335.931 C 246.583 330.038, 244.468 322.327, 239.033 319.517 C 235.333 317.604, 228.334 317.627, 224.763 319.565 M 272.387 321.284 C 263.647 329.294, 269.649 344, 281.658 344 C 287.867 344, 294 336.521, 294 328.950 C 294 325.564, 293.374 324.174, 290.600 321.400 C 287.541 318.341, 286.637 318, 281.585 318 C 276.633 318, 275.548 318.387, 272.387 321.284 M 345.313 324.092 C 340.547 325.486, 338 329.338, 338 335.150 C 338 339.311, 338.504 340.579, 341.423 343.765 C 344.488 347.110, 345.361 347.500, 349.772 347.500 C 355.637 347.500, 359.651 345.575, 361.585 341.835 C 366.596 332.145, 356.271 320.887, 345.313 324.092 M 151.400 327.400 C 148.573 330.227, 148.001 331.534, 148.004 335.150 C 148.014 346.805, 160.129 352.025, 168.271 343.883 C 171.016 341.138, 171.205 340.488, 170.774 335.289 C 170.380 330.536, 169.816 329.225, 167.138 326.832 C 164.635 324.595, 163.005 324, 159.384 324 C 155.504 324, 154.278 324.522, 151.400 327.400 M 347.323 334.601 C 346.692 336.246, 348.777 338.256, 350.202 337.375 C 350.641 337.104, 351 336.009, 351 334.941 C 351 332.601, 348.190 332.341, 347.323 334.601 M 158.446 335.087 C 157.416 336.755, 159.733 338.667, 161.113 337.287 C 162.267 336.133, 161.545 334, 160 334 C 159.515 334, 158.816 334.489, 158.446 335.087 M 276.223 356.557 C 273.583 358.405, 273.239 363.096, 275.571 365.429 C 278.556 368.413, 287 366.600, 287 362.976 C 287 360.729, 284.548 357.115, 282.343 356.110 C 279.198 354.678, 278.871 354.701, 276.223 356.557 M 226.655 357.829 C 224.589 360.111, 224.564 361.932, 226.557 364.777 C 229.788 369.390, 239.159 366.229, 237.525 361.078 C 235.928 356.048, 229.898 354.246, 226.655 357.829 M 140.281 371.417 C 135.228 375.669, 132.025 382.983, 130.845 392.964 C 129.258 406.378, 130.936 412, 136.524 412 C 144.419 412, 146.562 407.298, 145.634 392.015 C 145.011 381.767, 145.075 381.287, 147.495 378.007 C 150.483 373.957, 150.586 372.840, 148.171 370.655 C 145.661 368.384, 143.656 368.577, 140.281 371.417 M 245.500 369.724 C 241.713 370.654, 241 372.081, 241 378.721 C 241 385.856, 242.877 390.971, 246.557 393.866 C 248.488 395.385, 250.204 395.603, 257.180 395.217 C 261.756 394.964, 266.134 394.249, 266.908 393.629 C 269.391 391.639, 271.955 384.643, 271.978 379.797 C 272.005 374.020, 270.441 370.353, 267.628 369.598 C 265.108 368.922, 248.375 369.017, 245.500 369.724 M 361.523 370.974 C 359.574 373.129, 359.312 372.398, 364.717 379.904 C 366.115 381.845, 366.455 384.540, 366.484 393.904 C 366.529 408.724, 367.995 411.953, 374.693 411.985 C 378.985 412.005, 381.002 408.977, 380.992 402.527 C 380.961 381.296, 369.294 362.388, 361.523 370.974 M 227.223 389.557 C 224.774 391.272, 224.211 395.811, 226.200 397.800 C 226.860 398.460, 229.020 399, 231 399 C 235.131 399, 237 397.559, 237 394.373 C 237 392.172, 232.802 388, 230.588 388 C 229.959 388, 228.445 388.701, 227.223 389.557 M 276.413 390.493 C 272.951 395.776, 277.527 400.599, 283.890 398.375 C 285.728 397.733, 286.596 396.629, 286.825 394.643 C 287.525 388.569, 279.713 385.455, 276.413 390.493 M 127.750 424.572 C 126.237 425.393, 125 426.508, 125 427.051 C 125 427.648, 126.088 427.734, 127.750 427.269 C 129.262 426.846, 133.763 426.500, 137.751 426.500 C 141.739 426.500, 145.001 426.235, 145.001 425.911 C 145 425.586, 143.854 424.799, 142.453 424.161 C 138.932 422.556, 131.059 422.777, 127.750 424.572 M 369.250 424.491 C 365.217 426.244, 364.835 428.364, 368.750 427.269 C 370.262 426.846, 374.538 426.500, 378.251 426.500 C 381.964 426.500, 385.001 426.235, 385.001 425.911 C 384.999 424.704, 379.783 423.001, 376.203 423.039 C 374.166 423.061, 371.038 423.714, 369.250 424.491" stroke="none" fill="white" fill-rule="evenodd"/>
</svg>