<?xml version="1.0" encoding="iso-8859-1"?>
<!-- Uploaded to: SVG Repo, www.svgrepo.com, Generator: SVG Repo Mixer Tools -->
<svg xmlns="http://www.w3.org/2000/svg" xmlns:xlink="http://www.w3.org/1999/xlink" version="1.1" id="Layer_1"  viewBox="0 0 410 410" xml:space="preserve" width="512" height="512">
<style type="text/css">
    #Layer_1 {
        animation: rotate 4s linear infinite;
    }
    @keyframes rotate {
        from {
            transform: rotate(0deg);
        }
        to {
            transform: rotate(360deg);
        }
    }
</style>
<g>
	<path style="fill:#E6E6E6;" d="M362.551,265.521c11.07,0,20.04,8.98,20.04,20.05s-8.97,20.05-20.04,20.05s-20.05-8.98-20.05-20.05   S351.481,265.521,362.551,265.521z"/>
	<path style="fill:#E6E6E6;" d="M387.071,161.031c0.85,36.35-20.57,67.8-51.57,81.67c-20.3,9.09-37.48,23.84-50.24,42.06   c-27.6,39.41-73.35,65.18-125.11,65.18c-85.06,0-153.87-69.57-152.63-154.91c1.19-82.49,68.72-149.63,151.21-150.37   c25.92-0.24,50.35,5.98,71.81,17.15c19.83,10.33,41.96,15.57,64.28,14.27c2.44-0.14,4.9-0.18,7.38-0.11   C348.361,77.151,385.991,114.871,387.071,161.031z M248.031,161.221c0-35.77-28.99-64.76-64.76-64.76   c-35.76,0-64.75,28.99-64.75,64.76c0,35.76,28.99,64.76,64.75,64.76C219.041,225.981,248.031,196.981,248.031,161.221z"/>
	<g>
		<path style="fill:#CCCCCC;" d="M37.519,195.031C38.643,117.113,98.96,52.902,175.163,45.398    c-5.401-0.527-10.88-0.789-16.432-0.738c-82.49,0.74-150.02,67.88-151.21,150.37c-1.24,85.34,67.57,154.91,152.63,154.91    c5.06,0,10.061-0.254,14.995-0.736C97.148,341.595,36.353,275.29,37.519,195.031z"/>
	</g>
	<path style="fill:#F7B239;" d="M183.271,96.461c35.77,0,64.76,28.99,64.76,64.76c0,35.76-28.99,64.76-64.76,64.76   c-35.76,0-64.75-29-64.75-64.76C118.521,125.451,147.511,96.461,183.271,96.461z"/>
	<path style="fill:#E09B2D;" d="M157.519,161.221c0-28.973,19.022-53.493,45.253-61.767c-6.155-1.941-12.704-2.993-19.501-2.993   c-35.76,0-64.75,28.99-64.75,64.76c0,35.76,28.99,64.76,64.75,64.76c6.797,0,13.346-1.052,19.501-2.994   C176.541,214.71,157.519,190.185,157.519,161.221z"/>
	<path style="fill:#FFFFFF;" d="M342.115,218.99c-2.094,0-4.176-0.871-5.659-2.574c-2.72-3.124-2.394-7.861,0.73-10.582   c12.72-11.077,19.789-27.147,19.393-44.09c-0.338-14.462-6.244-28.159-16.63-38.568c-10.384-10.409-24.087-16.346-38.583-16.717   c-1.66-0.046-3.211-0.02-4.778,0.07c-27.088,1.581-55.034-4.591-80.131-17.664c-5.368-2.794-10.953-5.198-16.597-7.144   c-3.916-1.351-5.996-5.619-4.646-9.535s5.62-5.994,9.535-4.646c6.342,2.187,12.612,4.885,18.636,8.021   c22.711,11.83,47.881,17.42,72.336,15.993c2.002-0.116,4.025-0.147,6.05-0.09c18.342,0.47,35.68,7.969,48.797,21.117   c13.117,13.147,20.578,30.482,21.007,48.812c0.5,21.415-8.443,41.736-24.537,55.753C345.617,218.383,343.862,218.99,342.115,218.99   z"/>
	<path style="fill:#FFFFFF;" d="M177.655,76.304c-0.331,0-0.665-0.021-1.001-0.066c-5.388-0.72-10.931-1.084-16.476-1.084   c-0.389,0-0.775,0.002-1.171,0.006c-4.117,0.068-7.531-3.288-7.569-7.43c-0.039-4.143,3.288-7.531,7.43-7.57   c0.443-0.004,0.875-0.006,1.311-0.006c6.206,0,12.417,0.409,18.46,1.215c4.105,0.549,6.99,4.321,6.442,8.427   C184.577,73.564,181.356,76.304,177.655,76.304z"/>
	<path style="fill:#FFFFFF;" d="M212.785,198.236c-1.919,0-3.839-0.732-5.304-2.197c-2.929-2.929-2.928-7.678,0-10.606   c6.48-6.479,10.048-15.078,10.048-24.212c0-10.965-5.334-21.358-14.269-27.805c-3.359-2.423-4.118-7.11-1.695-10.47   c2.423-3.359,7.111-4.12,10.47-1.694c12.833,9.257,20.494,24.198,20.494,39.969c0,13.141-5.129,25.507-14.442,34.819   C216.624,197.503,214.704,198.236,212.785,198.236z"/>
	<circle style="fill:#FFFFFF;" cx="189.867" cy="119.494" r="7.5"/>
	<g>
		<path style="fill:#333333;" d="M394.569,160.854c-0.566-24.258-10.41-47.17-27.717-64.518    c-17.307-17.347-40.197-27.243-64.455-27.867c-2.675-0.066-5.37-0.024-8.008,0.129c-20.356,1.176-41.24-3.468-60.387-13.437    c-23.08-12.016-49.126-18.202-75.337-18.006c-41.87,0.38-81.402,16.971-111.315,46.716    c-29.915,29.746-46.724,69.185-47.332,111.05c-0.627,43.245,15.732,84.011,46.065,114.787    c30.339,30.782,70.848,47.735,114.064,47.735c52.204,0,101.272-25.563,131.259-68.38c12.286-17.544,28.594-31.209,47.16-39.519    C373.479,233.92,395.462,199.107,394.569,160.854z M279.119,280.458c-27.181,38.813-71.657,61.985-118.972,61.985    c-39.168,0-75.883-15.365-103.381-43.265c-27.492-27.894-42.319-64.843-41.75-104.041c0.55-37.924,15.79-73.662,42.91-100.631    C85.045,67.54,120.87,52.499,158.8,52.156c0.437-0.004,0.873-0.006,1.309-0.006c23.314,0,46.441,5.631,66.966,16.316    c21.545,11.217,45.119,16.441,68.182,15.106c2.225-0.13,4.496-0.165,6.756-0.108c20.389,0.524,39.645,8.857,54.22,23.467    c14.575,14.608,22.864,33.883,23.34,54.272c0.751,32.198-17.75,61.5-47.133,74.65C311.398,245.27,292.961,260.695,279.119,280.458    z"/>
		<path style="fill:#333333;" d="M362.547,258.024c-15.189,0-27.547,12.357-27.547,27.547s12.357,27.547,27.547,27.547    s27.547-12.357,27.547-27.547S377.737,258.024,362.547,258.024z M362.547,298.118c-6.918,0-12.547-5.629-12.547-12.547    s5.628-12.547,12.547-12.547s12.547,5.629,12.547,12.547S369.466,298.118,362.547,298.118z"/>
		<path style="fill:#333333;" d="M183.275,88.957c-39.844,0-72.259,32.415-72.259,72.259s32.416,72.26,72.259,72.26    c39.844,0,72.26-32.416,72.26-72.26S223.119,88.957,183.275,88.957z M183.275,218.476c-31.573,0-57.259-25.687-57.259-57.26    c0-31.572,25.687-57.259,57.259-57.259c31.573,0,57.26,25.687,57.26,57.259C240.535,192.789,214.848,218.476,183.275,218.476z"/>
		<circle style="fill:#333333;" cx="301.753" cy="185.94" r="7.5"/>
		<circle style="fill:#333333;" cx="182.055" cy="277.484" r="7.5"/>
		<circle style="fill:#333333;" cx="75.891" cy="126.669" r="7.5"/>
	</g>
</g>















</svg>